<?xml version="1.0" standalone="no"?>
<!DOCTYPE svg PUBLIC "-//W3C//DTD SVG 20010904//EN"
 "http://www.w3.org/TR/2001/REC-SVG-20010904/DTD/svg10.dtd">
<svg version="1.0" xmlns="http://www.w3.org/2000/svg"
 width="1024.000000pt" height="1024.000000pt" viewBox="0 0 1024.000000 1024.000000"
 preserveAspectRatio="xMidYMid meet">

<g transform="translate(0.000000,1024.000000) scale(0.100000,-0.100000)"
fill="#000000" stroke="none">
<path d="M4705 9509 c-520 -40 -1125 -250 -1560 -541 -483 -323 -846 -711
-1128 -1204 -210 -369 -363 -841 -419 -1294 -17 -139 -17 -630 0 -775 51 -439
200 -903 409 -1279 81 -145 227 -364 329 -491 179 -223 449 -476 699 -656 484
-348 1110 -576 1700 -619 551 -39 1053 33 1543 222 142 55 432 201 557 279
685 430 1194 1071 1445 1818 149 445 206 852 180 1304 -59 1051 -582 1996
-1450 2619 -483 347 -1103 573 -1690 618 -152 11 -465 11 -615 -1z m795 -169
c369 -56 679 -154 1005 -320 211 -107 315 -171 492 -304 414 -311 742 -702
971 -1161 165 -331 265 -658 323 -1056 19 -129 23 -197 23 -419 0 -286 -16
-437 -70 -689 -248 -1148 -1083 -2076 -2197 -2442 -164 -53 -344 -96 -537
-127 -153 -24 -189 -26 -485 -26 -284 0 -337 2 -470 23 -588 90 -1096 307
-1565 670 -701 542 -1167 1396 -1249 2291 -14 146 -14 452 -1 595 89 964 589
1829 1390 2402 405 290 908 489 1420 562 206 30 196 29 515 26 239 -2 315 -6
435 -25z"/>
<path d="M4840 8018 c-107 -60 -229 -128 -270 -150 -71 -38 -310 -170 -920
-508 -146 -80 -379 -209 -517 -286 -139 -76 -253 -144 -253 -150 0 -5 21 -20
48 -33 26 -13 130 -69 232 -125 317 -176 554 -305 572 -311 12 -5 23 5 42 37
48 82 -16 44 791 474 l390 208 83 4 c74 4 88 1 136 -22 105 -52 173 -167 163
-275 -7 -69 -49 -153 -95 -192 -20 -17 -235 -135 -477 -264 -241 -128 -440
-236 -442 -241 -2 -5 7 -16 19 -23 60 -38 637 -387 668 -404 l36 -20 109 58
c61 32 164 89 230 125 66 37 156 86 200 110 44 23 149 80 233 126 184 102 380
209 692 379 129 71 314 172 410 225 96 52 201 109 232 125 32 17 58 35 58 40
0 9 -225 138 -494 284 -45 24 -205 112 -356 196 -151 83 -412 227 -580 320
-168 93 -401 221 -519 287 -117 65 -216 118 -220 117 -3 0 -94 -50 -201 -111z"/>
<path d="M4949 6962 c-122 -63 -911 -483 -955 -508 -87 -51 -79 38 -82 -884
l-2 -818 -33 -13 c-47 -20 -125 -96 -155 -154 -27 -50 -27 -51 -30 -302 l-3
-253 330 0 331 0 6 25 c3 14 5 123 3 243 -4 215 -4 218 -32 275 -39 77 -68
110 -138 153 l-59 37 2 760 3 759 310 165 c171 90 364 193 430 228 195 103
249 135 268 157 35 42 12 133 -40 157 -41 19 -78 12 -154 -27z"/>
<path d="M3620 6067 c0 -168 2 -193 25 -271 27 -94 69 -186 85 -186 6 0 10
107 10 290 l0 290 -52 27 c-29 15 -56 29 -60 31 -5 2 -8 -79 -8 -181z"/>
<path d="M6335 6181 c-66 -37 -199 -110 -295 -163 -235 -128 -569 -311 -765
-418 -248 -137 -221 -129 -296 -88 -35 19 -158 90 -274 158 -115 68 -250 148
-300 177 l-90 52 -3 -367 c-1 -202 0 -372 2 -379 10 -25 311 -104 470 -123
117 -14 408 -14 521 0 261 32 532 124 720 245 92 58 212 162 272 234 68 83
138 225 158 319 16 77 22 423 8 421 -5 0 -62 -31 -128 -68z"/>
<path d="M3935 1958 c-8 -25 -96 -313 -120 -393 -13 -44 -53 -174 -88 -290
-117 -382 -147 -483 -147 -494 0 -8 51 -11 164 -11 l165 0 16 78 c9 42 22 97
29 122 l12 45 164 0 165 0 29 -122 29 -123 168 0 c123 0 169 3 169 12 0 6 -16
64 -35 127 -20 64 -47 152 -60 196 -13 44 -45 148 -70 230 -25 83 -57 186 -70
230 -14 44 -46 152 -73 240 l-49 160 -197 3 c-152 2 -197 0 -201 -10z m224
-358 c11 -52 32 -143 46 -202 14 -59 25 -110 25 -113 0 -3 -45 -5 -100 -5
-112 0 -108 -3 -86 76 8 27 29 118 47 201 18 84 36 150 40 145 4 -4 16 -50 28
-102z"/>
<path d="M4810 1370 l0 -600 390 0 390 0 0 135 0 135 -225 0 -225 0 0 465 0
465 -165 0 -165 0 0 -600z"/>
<path d="M5480 1835 l0 -135 160 0 160 0 0 -465 0 -465 160 0 160 0 0 465 0
465 160 0 160 0 0 135 0 135 -480 0 -480 0 0 -135z"/>
</g>
</svg>
